<?xml version="1.0" encoding="UTF-8" standalone="no"?>
<!-- Created with Inkscape (http://www.inkscape.org/) -->

<svg
   width="1794.849"
   height="1794.849"
   viewBox="0 0 474.88714 474.88714"
   version="1.1"
   id="svg5"
   inkscape:version="1.1 (c4e8f9ed74, 2021-05-24)"
   sodipodi:docname="favicon.svg"
   xmlns:inkscape="http://www.inkscape.org/namespaces/inkscape"
   xmlns:sodipodi="http://sodipodi.sourceforge.net/DTD/sodipodi-0.dtd"
   xmlns="http://www.w3.org/2000/svg"
   xmlns:svg="http://www.w3.org/2000/svg">
  <sodipodi:namedview
     id="namedview7"
     pagecolor="#ffffff"
     bordercolor="#666666"
     borderopacity="1.0"
     inkscape:pageshadow="2"
     inkscape:pageopacity="0.0"
     inkscape:pagecheckerboard="0"
     inkscape:document-units="mm"
     showgrid="false"
     width="100mm"
     units="px"
     fit-margin-top="0"
     fit-margin-left="0"
     fit-margin-right="0"
     fit-margin-bottom="0"
     showguides="true"
     inkscape:guide-bbox="true"
     inkscape:zoom="0.25"
     inkscape:cx="1200"
     inkscape:cy="870"
     inkscape:window-width="1920"
     inkscape:window-height="1006"
     inkscape:window-x="0"
     inkscape:window-y="0"
     inkscape:window-maximized="1"
     inkscape:current-layer="g1314" />
  <defs
     id="defs2" />
  <g
     inkscape:groupmode="layer"
     id="layer6"
     inkscape:label="bg"
     transform="translate(3.3341675,-189.04434)">
    <circle
       style="fill:#222222;fill-opacity:1;fill-rule:evenodd;stroke-width:0.157059"
       id="path192"
       cx="234.10941"
       cy="426.48792"
       r="237.44357" />
  </g>
  <g
     inkscape:groupmode="layer"
     id="g1314"
     inkscape:label="bg copy 1"
     transform="translate(3.3341675,-189.04434)">
    <path
       id="circle1312"
       style="fill:#ffff00;fill-opacity:1;fill-rule:evenodd;stroke-width:0.593609"
       d="M 885.8457,852.45312 765.18359,1183.9727 347.95898,2330.2891 a 897.42453,897.42453 0 0 0 179.28711,104.0605 h 24.16407 l 334.4375,-918.8574 334.43754,918.8574 h 22.1152 a 897.42453,897.42453 0 0 0 180.9004,-105.2519 l -416.791,-1145.1231 z"
       transform="scale(0.26458333)" />
  </g>
  <g
     inkscape:groupmode="layer"
     id="g1853"
     inkscape:label="Big Chevron Left"
     style="display:none;opacity:1"
     transform="translate(59.960683,-34.155602)">
    <path
       id="path1851"
       style="display:inline;fill:#222222;fill-opacity:1;stroke-width:1.354"
       d="M 886.01758,1870.543 101.24805,2156.1738 0,2434.3496 886.01562,2111.8652 h 0.002 z"
       transform="matrix(0.26458333,0,0,0.26458333,-56.626516,-154.88874)" />
  </g>
  <g
     inkscape:groupmode="layer"
     id="layer3"
     inkscape:label="Big Chevron"
     style="display:none;opacity:1"
     transform="translate(59.960683,-34.155602)">
    <path
       id="rect206-1"
       style="display:inline;fill:#222222;fill-opacity:1;stroke-width:1.354"
       d="M 886.01758,1870.543 101.24805,2156.1738 0,2434.3496 l 886.01562,-322.4844 886.01558,322.4844 -101.248,-278.1758 z"
       transform="matrix(0.26458333,0,0,0.26458333,-56.626516,-154.88874)" />
  </g>
  <g
     inkscape:label="Small Chevron"
     inkscape:groupmode="layer"
     id="layer1"
     transform="translate(96.727827,-110.99139)"
     style="display:none">
    <path
       style="fill:#222222;fill-opacity:1;stroke-width:1.00332"
       d="m 885.84766,1515.4922 -536.29102,195.1953 77.56055,213.0957 458.73047,-166.9648 458.73044,166.9648 77.5606,-213.0957 z"
       transform="matrix(0.26458333,0,0,0.26458333,-93.39366,-78.052955)"
       id="rect206" />
  </g>
  <g
     inkscape:groupmode="layer"
     id="g1699"
     inkscape:label="Thread"
     style="display:inline"
     transform="translate(3.3341675,-189.04434)" />
  <g
     inkscape:groupmode="layer"
     id="layer7"
     inkscape:label="Highlight"
     style="display:none"
     transform="translate(3.3341675,-189.04434)">
    <path
       id="rect2181"
       style="fill:#808000;stroke-width:0.229136"
       d="M 152.29871,451.06341 82.043052,644.08832 h 63.850888 l 62.78634,-172.50367 z" />
    <path
       id="rect2303"
       style="fill:#808000;stroke-width:0.999999"
       d="m 1332.3418,2079.1895 -213.0957,77.5605 101.0371,277.5996 h 241.3262 z"
       transform="scale(0.26458333)" />
  </g>
  <g
     inkscape:label="Small Chevron Left"
     inkscape:groupmode="layer"
     id="g1377"
     transform="translate(96.727827,-110.99139)"
     style="display:inline">
    <path
       id="path1375"
       style="fill:#222222;fill-opacity:1;stroke-width:1.00332"
       d="m 885.84766,1515.4922 -536.29102,195.1953 77.56055,213.0957 458.73047,-166.9648 z"
       transform="matrix(0.26458333,0,0,0.26458333,-93.39366,-78.052955)" />
  </g>
  <g
     inkscape:groupmode="layer"
     id="g1531"
     inkscape:label="Big Chevron Right"
     style="display:none;opacity:1"
     transform="translate(59.960683,-34.155602)">
    <path
       id="path1529"
       style="display:inline;fill:#222222;fill-opacity:1;stroke-width:1.354"
       d="m 886.01758,1870.543 v 241.3222 l 886.01362,322.4844 -101.248,-278.1758 z"
       transform="matrix(0.26458333,0,0,0.26458333,-56.626516,-154.88874)" />
  </g>
  <g
     inkscape:groupmode="layer"
     id="g1182"
     inkscape:label="Big Chevron Right copy"
     style="display:inline;opacity:1"
     transform="translate(59.960683,-34.155602)" />
  <g
     inkscape:groupmode="layer"
     id="layer4"
     inkscape:label="Yellow"
     style="display:none"
     transform="translate(3.3341675,-189.04434)">
    <path
       id="rect56-80-0"
       style="display:inline;fill:#ffff00;stroke-width:1.08099"
       inkscape:transform-center-x="-60.784539"
       inkscape:transform-center-y="-254.59424"
       d="M 886.04297,663.03906 765.38086,994.55859 241.33984,2434.3496 H 444 1324 1530.748 L 1006.707,994.56055 Z M 596,2122.9688 V 2124 h -0.375 z"
       transform="scale(0.26458333)" />
  </g>
  <g
     inkscape:groupmode="layer"
     id="layer5"
     inkscape:label="Slit"
     style="display:none"
     transform="translate(3.3341675,-189.04434)">
    <path
       id="rect56-80-1"
       style="display:inline;fill:#f2f2f2;stroke-width:0.286012"
       inkscape:transform-center-x="-60.784539"
       inkscape:transform-center-y="-254.59424"
       d="M 234.42496,319.48542 202.49978,407.19996 56.627558,807.98118 113.00912,828.50242 234.42548,494.9145 355.83568,828.48639 412.21718,807.96517 266.35067,407.20047 Z" />
  </g>
  <g
     inkscape:groupmode="layer"
     id="layer2"
     inkscape:label="Main Point"
     style="display:none"
     transform="translate(59.960683,-34.155602)">
    <path
       id="rect56-80"
       style="fill:#222222;fill-opacity:1;stroke-width:1.08099"
       inkscape:transform-center-x="-60.784539"
       inkscape:transform-center-y="-254.59424"
       d="M 886.04102,0 765.37891,331.51953 214.05078,1846.2832 427.14648,1923.8438 886.04297,663.03906 1344.916,1923.7832 1558.0117,1846.2227 1006.7051,331.52148 Z"
       transform="matrix(0.26458333,0,0,0.26458333,-56.626516,-154.88874)" />
  </g>
  <g
     inkscape:groupmode="layer"
     id="g1309"
     inkscape:label="bg copy"
     transform="translate(3.3341675,-189.04434)">
    <path
       id="circle1307"
       style="fill:#222222;fill-opacity:1;fill-rule:evenodd;stroke-width:0.593609"
       d="m 886.01758,1870.543 v 241.3222 l 556.95312,202.7149 a 897.42453,897.42453 0 0 0 170.2344,-179.3633 z"
       transform="scale(0.26458333)" />
  </g>
</svg>
