<?xml version="1.0" encoding="UTF-8" standalone="no"?>
<!-- Created with Inkscape (http://www.inkscape.org/) -->

<svg
   width="100"
   height="100"
   viewBox="0 0 26.458333 26.458333"
   version="1.1"
   id="svg1"
   inkscape:version="1.3.2 (091e20e, 2023-11-25, custom)"
   sodipodi:docname="RH.svg"
   xmlns:inkscape="http://www.inkscape.org/namespaces/inkscape"
   xmlns:sodipodi="http://sodipodi.sourceforge.net/DTD/sodipodi-0.dtd"
   xmlns="http://www.w3.org/2000/svg"
   xmlns:svg="http://www.w3.org/2000/svg">
  <sodipodi:namedview
     id="namedview1"
     pagecolor="#ffffff"
     bordercolor="#000000"
     borderopacity="0.25"
     inkscape:showpageshadow="2"
     inkscape:pageopacity="0.0"
     inkscape:pagecheckerboard="0"
     inkscape:deskcolor="#d1d1d1"
     inkscape:document-units="mm"
     inkscape:zoom="64"
     inkscape:cx="81.632813"
     inkscape:cy="82.375"
     inkscape:window-width="2558"
     inkscape:window-height="1360"
     inkscape:window-x="2546"
     inkscape:window-y="0"
     inkscape:window-maximized="0"
     inkscape:current-layer="layer1" />
  <defs
     id="defs1" />
  <g
     inkscape:groupmode="layer"
     id="layer2"
     inkscape:label="BG">
    <circle
       style="display:inline;fill:#ffffff;stroke-width:0.264583"
       id="path6"
       cx="13.229167"
       cy="13.229167"
       r="13.229167" />
  </g>
  <g
     inkscape:label="Layer 1"
     inkscape:groupmode="layer"
     id="layer1">
    <text
       xml:space="preserve"
       style="font-size:18.9834px;display:none;fill:#000000;stroke-width:0.788115"
       x="10.306408"
       y="20.493214"
       id="text2"
       inkscape:label="H"
       transform="scale(0.91541333,1.0924027)"><tspan
         sodipodi:role="line"
         id="tspan2"
         style="font-style:normal;font-variant:normal;font-weight:normal;font-stretch:normal;font-size:18.9834px;font-family:Italianno;-inkscape-font-specification:Italianno;stroke-width:0.788115"
         x="10.306408"
         y="20.493214">H</tspan></text>
    <path
       style="font-size:18.9834px;font-family:Italianno;-inkscape-font-specification:Italianno;stroke-width:0.788115"
       d="m 12.470516,20.872882 q -0.588486,0 -1.120021,-0.341702 -0.531535,-0.341701 -0.797303,-1.00612 -0.09492,-0.246784 -0.132884,-0.531535 -0.01898,-0.284751 -0.01898,-0.550519 v -0.246784 q 0,-0.132884 0.01898,-0.246784 0.03797,-0.1139 0.151868,-0.1139 0.03797,0 0.03797,0.03797 0,0.113901 -0.01898,0.227801 0,0.113901 0,0.227801 0,0.89222 0.436618,1.347821 0.455602,0.455602 1.120021,0.455602 0.664419,0 1.290871,-0.379668 0.626452,-0.379668 1.157987,-0.968153 0.436619,-0.474585 0.854253,-1.233921 0.436619,-0.759336 0.89222,-1.632573 -0.607469,0.01898 -1.271888,0.05695 -0.664419,0.01898 -1.214937,0.113901 -0.170851,0.01898 -0.09492,-0.09492 0.07593,-0.113901 0.284751,-0.284751 0.208817,-0.170851 0.436618,-0.303735 0.246784,-0.132883 0.398651,-0.151867 0.322718,0.01898 0.797303,0.03797 0.493569,0 0.968154,0.01898 0.417634,-0.759336 0.797302,-1.537655 0.398652,-0.797303 0.740353,-1.480705 0.189834,-0.379668 0.493568,-0.759336 0.322718,-0.398652 0.702386,-0.702386 0.398652,-0.303735 0.816287,-0.379668 -1.006121,0.03797 -2.088175,0.05695 -1.06307,0.01898 -2.031223,0.284751 -0.436619,0.1139 -0.77832,0.303734 -0.341701,0.189834 -0.493568,0.474585 -0.151867,0.284751 -0.151867,0.626453 0,0.474585 0.265767,0.683402 0.01898,0.01898 0.01898,0.03797 0,0.03797 -0.07593,0.07593 -0.05695,0.03797 -0.1139,0.01898 -0.170851,-0.09492 -0.417635,-0.455602 -0.246784,-0.379668 -0.303735,-0.626452 -0.05695,-0.227801 -0.05695,-0.417635 0,-0.493568 0.322718,-0.759336 0.322718,-0.284751 0.816286,-0.398651 0.493569,-0.132884 1.00612,-0.151867 0.512552,-0.03797 0.911204,-0.03797 h 2.107157 q 0.721369,0 1.252905,0 0.531535,-0.01898 0.854253,-0.07593 0.03797,0 0.05695,0 0.01898,-0.01898 0.03797,-0.01898 0.1139,0 0.1139,0.07593 0,0.07593 -0.07593,0.151868 -0.05695,0.05695 -0.09492,0.05695 -0.588485,0.05695 -1.101037,0.512552 -0.512552,0.455601 -0.930187,1.176971 -0.1139,0.208817 -0.417634,0.778319 -0.303735,0.569502 -0.664419,1.252904 -0.360685,0.683403 -0.664419,1.271888 0.360684,0.01898 0.588485,0.03797 0.246784,0 0.284751,0 h 2.79056 q 0.170851,0 0.626452,-0.05695 0.474585,-0.05695 0.721369,-0.170851 0.512552,-0.987137 1.044087,-1.95529 0.531536,-0.968153 0.987137,-1.72749 0.474585,-0.778319 0.740353,-1.12002 0.322718,-0.132884 0.721369,-0.322718 0.417635,-0.1898339 0.816286,-0.3417011 0.417635,-0.1518672 0.740353,-0.1518672 0.09492,0 0.189834,0.05695 0.1139,0.05695 0.1139,0.1139004 0,0.094917 -0.379668,0.094917 -0.189834,0 -0.398651,0.075934 -0.208818,0.05695 -0.531535,0.3986511 -0.265768,0.265768 -0.702386,0.911203 -0.417635,0.626453 -0.911203,1.480706 -0.493569,0.835269 -1.006121,1.765456 -0.493568,0.930187 -0.930186,1.822406 -0.436618,0.873237 -0.740353,1.594606 -0.303734,0.702386 -0.398651,1.082054 -0.01898,0.132884 -0.05695,0.303734 -0.01898,0.151867 -0.01898,0.303735 0,0.303734 0.151867,0.531535 0.151868,0.227801 0.569502,0.227801 0.303735,0 0.607469,-0.113901 0.322718,-0.1139 0.569502,-0.246784 0.683403,-0.379668 1.233921,-1.025104 0.550519,-0.664419 0.89222,-1.12002 0.05695,-0.07593 0.07593,-0.07593 0.05695,0 0.05695,0.132884 0,0.1139 -0.05695,0.208817 -0.360685,0.512552 -0.94917,1.195955 -0.588486,0.664419 -1.366805,1.101037 -0.607469,0.322718 -1.385788,0.322718 -0.588486,0 -1.025104,-0.417635 -0.417635,-0.436618 -0.417635,-1.044087 0,-0.303735 0.113901,-0.607469 0.17085,-0.436618 0.550518,-1.252904 0.398652,-0.816287 0.89222,-1.803423 -0.189834,0.17085 -0.436618,0.303734 -0.246784,0.132884 -0.474585,0.1139 -0.588486,-0.05695 -1.347822,-0.05695 -0.740352,-0.01898 -1.917323,-0.01898 h -0.911203 q -0.531536,1.082054 -1.101038,2.126141 -0.569502,1.025103 -1.17697,1.689522 -0.474585,0.512552 -1.139004,0.83527 -0.664419,0.322718 -1.328838,0.322718 z"
       id="text4"
       inkscape:label="H"
       transform="scale(0.91541333,1.0924027)"
       aria-label="H" />
    <text
       xml:space="preserve"
       style="font-style:normal;font-variant:normal;font-weight:normal;font-stretch:normal;font-size:20.9594px;font-family:Italianno;-inkscape-font-specification:Italianno;display:none;fill:#000000;stroke-width:1.62221"
       x="2.7196953"
       y="15.169241"
       id="text1"
       inkscape:label="R"
       transform="scale(0.91865469,1.0885483)"><tspan
         id="tspan1"
         style="font-style:normal;font-variant:normal;font-weight:normal;font-stretch:normal;font-size:20.9594px;font-family:Italianno;-inkscape-font-specification:Italianno;fill:#000000;stroke-width:1.62221"
         x="2.7196953"
         y="15.169241"
         sodipodi:role="line">R</tspan></text>
    <path
       d="m 12.612532,15.651307 q -0.523985,0 -1.068929,-0.33535 -0.523985,-0.314391 -1.06893,-1.027011 Q 9.8039726,13.366733 9.3428658,12.528357 8.881759,11.689981 8.5883274,11.061199 8.3158552,10.432417 8.1691394,10.159944 q 0,0 0.104797,-0.125756 0.104797,-0.1467159 0.2515128,-0.2724723 0.1676752,-0.1467158 0.2724722,-0.1467158 0.9850918,0 1.7605896,-0.020959 0.796457,-0.041919 1.40428,-0.2515128 0.628782,-0.2305534 1.110848,-0.7754978 0.482066,-0.5449444 0.817417,-1.5509956 0.104797,-0.2515128 0.125756,-0.5030256 0.04192,-0.2724722 0.04192,-0.523985 0,-0.7126196 -0.35631,-1.257564 -0.35631,-0.5449444 -1.027011,-0.628782 -0.08384,-0.020959 -0.188634,-0.020959 -0.104797,0 -0.209594,0 -0.398229,0 -0.880295,0.104797 -0.461107,0.104797 -0.69166,0.3982286 Q 10.181242,5.2764041 9.6991756,6.1566989 9.2171094,7.0160343 8.776962,7.9172885 8.3368146,8.7975833 7.938586,9.5730811 7.833789,9.7826751 7.5403574,10.32762 7.2469258,10.851605 6.890616,11.543265 q -0.3563098,0.670701 -0.6707008,1.341401 -0.314391,0.670701 -0.5030256,1.194686 -0.1676752,0.523985 -0.083838,0.71262 0.020959,0.02096 0.020959,0.06288 0,0.06288 -0.062878,0.06288 -0.1676752,0 -0.3353504,-0.08384 -0.1676753,-0.08384 -0.3982287,-0.08384 -0.209594,0 -0.419188,0.104797 -0.209594,0.08384 -0.5449444,0.314391 -0.3353504,0.230553 -0.7545384,0.377269 -0.041919,0.02096 -0.1257564,0.02096 -0.1467158,0 -0.2305534,-0.08384 -0.083838,-0.06288 0,-0.104797 0.4611068,-0.08384 0.7964572,-0.33535 Q 3.9143811,14.771012 4.1239751,14.372784 4.5641225,13.639205 4.9833105,12.905626 5.423458,12.151087 5.8216866,11.396549 6.3037528,10.474335 6.8067784,9.5521217 7.309804,8.6089487 7.8128296,7.6867351 8.2948958,6.8273997 8.672165,6.0309425 9.0494342,5.2344853 9.2380688,4.8781755 9.3847846,4.6057033 9.7410944,4.3961093 10.118364,4.1655559 10.474673,4.0397995 q -0.125756,0 -0.251512,0 -0.125757,-0.020959 -0.2724726,-0.020959 -0.6497414,0 -1.4252392,0.083838 -0.7545384,0.062878 -1.4881174,0.209594 -0.7126196,0.1467158 -1.257564,0.3982286 -0.5449444,0.2515128 -0.7335791,0.6078226 -0.083838,0.1886346 -0.1467158,0.3772692 -0.062878,0.1886346 -0.062878,0.3772692 0,0.4820662 0.3353505,0.6916602 0.020959,0 0.020959,0.041919 0,0.041919 -0.083838,0.083838 -0.062878,0.041919 -0.104797,0.020959 Q 4.7946759,6.8064403 4.5222037,6.4082117 4.2706909,5.9890237 4.1868533,5.7165515 4.1239751,5.4650387 4.1239751,5.2554447 q 0,-0.5449444 0.3563098,-0.838376 0.3563098,-0.314391 0.9012543,-0.4401474 0.5449444,-0.1467158 1.1108482,-0.1676752 0.5868632,-0.041919 1.0270106,-0.041919 0.6707008,0 1.5929144,0 0.9222136,-0.020959 1.6977116,-0.020959 0.188634,0 0.419188,0 0.230553,-0.020959 0.482066,-0.020959 0.565904,0 1.173726,0.062878 0.607823,0.062878 1.110849,0.2724722 0.503025,0.209594 0.775497,0.6497414 0.35631,0.5868632 0.35631,1.3414016 0,1.152767 -0.607822,1.9282648 -0.209594,0.2724722 -0.461107,0.523985 -0.251513,0.2515128 -0.586863,0.4820662 -0.544945,0.3772692 -1.299483,0.6497414 -0.754539,0.2515128 -1.571955,0.3772697 -0.7964574,0.125756 -1.4671582,0.167675 0.2724722,0.586863 0.8174166,1.571955 0.5659036,0.985092 1.3623606,1.970183 0.419188,0.523985 0.859336,0.733579 0.440147,0.209594 0.859335,0.209594 0.670701,0 1.257564,-0.398228 0.607823,-0.398229 1.089889,-0.922214 0.503026,-0.544944 0.796457,-0.943173 0.06288,-0.104797 0.104797,-0.104797 0.06288,0 0.06288,0.125757 0,0.167675 -0.125756,0.33535 -0.964132,1.320442 -1.844427,2.116899 -0.880295,0.775498 -1.76059,0.775498 z"
       id="text3"
       style="font-size:20.9594px;font-family:Italianno;-inkscape-font-specification:Italianno;stroke-width:1.62221"
       inkscape:label="R"
       transform="scale(0.91865469,1.0885483)"
       aria-label="R" />
  </g>
</svg>
